<svg xmlns="http://www.w3.org/2000/svg" width="24" height="24" fill="none" viewBox="0 0 24 24">
    <circle cx="12" cy="12" r="12" fill="#044150"/>
    <path fill="#fff" fill-rule="evenodd" d="M11.97 13.606h4.31c-.64 1.725-2.3 2.954-4.246 2.954-2.5 0-4.526-2.027-4.526-4.526 0-2.5 2.026-4.526 4.526-4.526 1.313 0 2.495.559 3.322 1.452l1.89-1.72c-1.296-1.44-3.175-2.345-5.265-2.345-3.914 0-7.086 3.172-7.086 7.086s3.172 7.086 7.086 7.086c2.954 0 5.486-1.808 6.55-4.377.084-.448.186-1.06.217-1.498.043-.595-.017-1.31-.053-1.594l-.068-.266H11.97v2.274z" clip-rule="evenodd"/>
</svg>
