<svg xmlns="http://www.w3.org/2000/svg" width="24" height="24" fill="none" viewBox="0 0 24 24">
    <circle cx="12" cy="12" r="12" fill="#044150"/>
    <path fill="#fff" fill-rule="evenodd" d="M6.762 8.525c.974 0 1.763-.79 1.763-1.763C8.525 5.79 7.735 5 6.762 5 5.79 5 5 5.79 5 6.762c0 .974.79 1.763 1.762 1.763zm6.194 4.266c.157-.494.65-1.194 1.763-1.194.948 0 1.282.653 1.36 1.24v5.759h2.92V13.41v-.654h-.023c-.077-.93-.355-2.218-1.085-2.82-1.158-.957-2.618-.806-3.676-.302-.483.23-.923.777-1.259 1.323V9.33H9.935v9.266h3.021V12.79zm-7.654-3.46h3.021v9.265h-3.02V9.331z" clip-rule="evenodd"/>
</svg>
