<svg width="44" height="44" viewBox="0 0 44 44" fill="none" xmlns="http://www.w3.org/2000/svg">
    <circle cx="22" cy="22" r="22" fill="#fff" fill-opacity=".2"/>
    <path fill-rule="evenodd" clip-rule="evenodd" d="M15.889 18.028a2.139 2.139 0 1 0 0-4.278 2.139 2.139 0 0 0 0 4.278zm7.517 5.178c.19-.6.787-1.45 2.138-1.45 1.15 0 1.556.792 1.65 1.504v6.99h3.545v-6.294a6.59 6.59 0 0 0 0-.252v-.543h-.029c-.093-1.128-.43-2.69-1.316-3.422-1.405-1.161-3.177-.978-4.46-.367-.587.28-1.121.943-1.529 1.606v-1.972H19.74V30.25h3.666v-7.044zm-9.29-4.2h3.667V30.25h-3.667V19.006z" fill="#fff"/>
</svg>
