<svg width="44" height="44" viewBox="0 0 44 44" fill="none" xmlns="http://www.w3.org/2000/svg">
    <circle cx="22" cy="22" r="22" fill="#fff" fill-opacity=".2"/>
    <path fill-rule="evenodd" clip-rule="evenodd" d="M30.633 18.274a4.384 4.384 0 0 0 .002-.426c.734-.615 2.081-1.783 2.081-1.95 0-.171-.573.072-.86.216-.405.262-1.231.744-1.289.572-.043-.128.07-.257.382-.618.209-.24.507-.585.908-1.1.963-1.24.141-.759-.687-.274l-.101.059a5.723 5.723 0 0 1-1.41.563 4.297 4.297 0 0 0-7.558 3.438c-.805.031-1.842-.027-3.065-.277-2.521-.515-4.727-2.84-5.515-3.94-.191.287-.573 1.218-.573 2.65 0 1.433 1.146 2.412 1.719 2.723-.095.095-.3.229-.645.286-.343.057-.883-.143-1.074-.286 0 .644.309 1.575 1.003 2.578.644.931 1.79 1.265 2.363 1.433l.025.066a4.213 4.213 0 0 1-2.436.155 4.225 4.225 0 0 0 3.998 2.643c-.002.197-.194.438-.727.717-.871.454-2.228.767-3.352.954-.407.027-.818.041-1.232.044.06.036.121.071.183.106-.147.017-.281.031-.398.042.336.112.717.229 1.136.342 1.679.8 3.637 1.26 5.73 1.26 1.645 0 3.208-.284 4.617-.795 1.133-.299 2.18-.765 3.057-1.452a9.527 9.527 0 0 0 2.447-2.845 7.856 7.856 0 0 0 .927-2.23c.517-1.801.514-3.521.344-4.654z" fill="#fff"/>
</svg>
