<svg width="44" height="44" viewBox="0 0 44 44" fill="none" xmlns="http://www.w3.org/2000/svg">
<g clip-path="url(#clip0_306_12)">
<path d="M22 44C34.1503 44 44 34.1503 44 22C44 9.84974 34.1503 0 22 0C9.84974 0 0 9.84974 0 22C0 34.1503 9.84974 44 22 44Z" fill="white" fill-opacity="0.2"/>
<path d="M13.3691 30.2598H29.6309C31.4886 30.2598 33 28.7484 33 26.8906V16.1094C33 14.2516 31.4886 12.7402 29.6309 12.7402H13.3691C11.5114 12.7402 10 14.2516 10 16.1094V26.8906C10 28.7484 11.5114 30.2598 13.3691 30.2598ZM11.3477 16.1094C11.3477 14.9948 12.2545 14.0879 13.3691 14.0879H29.6309C30.7455 14.0879 31.6523 14.9948 31.6523 16.1094V26.8906C31.6523 28.0052 30.7455 28.9121 29.6309 28.9121H13.3691C12.2545 28.9121 11.3477 28.0052 11.3477 26.8906V16.1094Z" fill="white"/>
<path d="M18.1309 16.9857V26.1452L26.2393 21.4903L18.1309 16.9857ZM19.4785 19.276L23.499 21.5097L19.4785 23.8177V19.276Z" fill="white"/>
</g>
<defs>
<clipPath id="clip0_306_12">
<rect width="44" height="44" fill="white"/>
</clipPath>
</defs>
</svg>
