<svg xmlns="http://www.w3.org/2000/svg" width="170" height="42" fill="none" viewBox="0 0 170 42">
    <path fill="#51BFFC" fill-rule="evenodd" d="M16.03 36.915c8.854 0 16.031-7.177 16.031-16.03 0-8.854-7.177-16.03-16.03-16.03C7.177 4.854 0 12.03 0 20.884c0 8.853 7.177 16.03 16.03 16.03z" clip-rule="evenodd"/>
    <path fill="#153740" fill-rule="evenodd" d="M27.545.855c.421.265.64.759.554 1.249L24.091 24.93c-.08.453-.406.823-.846.959-.44.136-.918.014-1.239-.316l-6.228-6.396-8.237-2.522c-.446-.136-.776-.514-.851-.974-.075-.46.117-.923.496-1.194L26.18.895c.405-.29.944-.305 1.366-.04zM10.629 15.037l6.167 1.888c.197.06.376.17.52.317l4.776 4.905 3.074-17.513L10.63 15.037z" clip-rule="evenodd"/>
    <path fill="#153740" fill-rule="evenodd" d="M11.943 18.935c.403.308.48.885.171 1.288l-4.53 5.925c-.308.403-.885.48-1.288.171-.404-.308-.48-.885-.172-1.288l4.53-5.924c.309-.404.885-.48 1.289-.172zm2.059 3.67c.414.292.514.865.222 1.28l-5.747 8.158c-.293.415-.866.514-1.281.222-.415-.292-.514-.866-.222-1.28l5.747-8.159c.292-.415.865-.514 1.28-.222zm4.397.483c.421.283.533.854.25 1.276l-4.524 6.733c-.283.421-.854.533-1.275.25-.421-.283-.534-.854-.25-1.275l4.524-6.733c.283-.422.854-.534 1.275-.25zM16.089 18.017l10.803-15.95L8.073 15.692l8.016 2.324z" clip-rule="evenodd"/>
    <path fill="#044150" fill-rule="evenodd" d="M88.964 39.166c.098.475.253.88.464 1.214.212.335.481.592.808.771.328.18.724.27 1.188.27.866 0 1.52-.328 1.96-.983.44-.655.66-1.608.66-2.861 0-.585-.052-1.115-.154-1.59-.102-.475-.258-.88-.47-1.214-.211-.335-.482-.592-.813-.771-.33-.18-.725-.27-1.183-.27-.88 0-1.535.328-1.964.983-.43.655-.644 1.609-.644 2.862 0 .584.05 1.114.148 1.589zm2.46-4.208c.233 0 .426.068.581.205.155.138.28.325.375.56.095.236.164.514.206.834.042.32.063.66.063 1.02 0 .915-.102 1.58-.306 1.995-.204.416-.51.623-.919.623-.225 0-.413-.066-.565-.2-.151-.134-.276-.317-.375-.55-.098-.232-.168-.508-.21-.828-.043-.32-.064-.667-.064-1.04 0-1.746.405-2.62 1.214-2.62zm12.197 6.367h1.025V33.88h-1.257v3.686l.169 1.257h-.063l-.454-1.278-2.123-3.717h-1.024v7.445h1.257v-3.654l-.17-1.278h.053l.486 1.299 2.101 3.685zm10.973-1.277h-2.598V33.88h-1.331v7.393h3.929v-1.225zm5.734 1.225h1.331V33.88h-1.331v7.393zm11.194.052h1.024V33.88h-1.257v3.686l.169 1.257h-.063l-.454-1.278-2.123-3.717h-1.024v7.445h1.256v-3.654l-.168-1.278h.052l.486 1.299 2.102 3.685zm7.043-.052h3.738v-1.225h-2.407v-1.901h2.144v-1.225h-2.144v-1.816h2.366V33.88h-3.697v7.393z" clip-rule="evenodd"/>
    <path fill="#51BFFC" fill-rule="evenodd" d="M135.787 30.141c1.587-.557 2.938-1.4 4.054-2.53 1.115-1.13 1.98-2.539 2.596-4.226.614-1.688.922-3.647.922-5.878V.475h-5.234v17.29c0 2.774-.677 4.862-2.028 6.263-1.352 1.402-3.207 2.102-5.566 2.102-2.387 0-4.257-.73-5.608-2.188-1.352-1.458-2.028-3.589-2.028-6.392V.475h-5.234v17.29c0 2.173.3 4.083.901 5.727.601 1.645 1.458 3.024 2.574 4.14 1.115 1.115 2.46 1.952 4.033 2.51 1.572.557 3.331.836 5.277.836 1.973 0 3.753-.279 5.341-.837zm19.97-4.182c-.801-.344-1.502-.83-2.102-1.46-.601-.628-1.08-1.393-1.437-2.294-.359-.901-.537-1.894-.537-2.982v-.086c0-1.086.178-2.073.537-2.96.357-.886.836-1.652 1.437-2.295.6-.643 1.301-1.137 2.102-1.48.8-.343 1.644-.515 2.531-.515.886 0 1.723.172 2.51.515.786.343 1.473.83 2.059 1.458.586.63 1.051 1.395 1.394 2.296.343.9.515 1.895.515 2.981v.086c0 1.116-.172 2.124-.515 3.025-.343.9-.808 1.659-1.394 2.273-.586.616-1.273 1.094-2.059 1.438-.787.343-1.624.515-2.51.515-.887 0-1.731-.172-2.531-.515zm-9.181 11.411h5.234V26.988c.799 1.059 1.812 1.989 3.039 2.789 1.226.8 2.767 1.201 4.622 1.201 1.341 0 2.647-.257 3.916-.772 1.27-.515 2.397-1.272 3.381-2.274.984-1 1.769-2.23 2.355-3.69.584-1.458.877-3.131.877-5.019v-.086c0-1.887-.3-3.56-.899-5.02-.599-1.458-1.391-2.687-2.375-3.689-.985-1-2.105-1.758-3.36-2.273-1.256-.515-2.554-.773-3.895-.773-1.826 0-3.353.408-4.579 1.223-1.227.815-2.255 1.823-3.082 3.025V7.854h-5.234V37.37z" clip-rule="evenodd"/>
    <path fill="#044150" fill-rule="evenodd" d="M58.983 30.339c1.279-.39 2.375-.961 3.286-1.713.912-.753 1.623-1.672 2.135-2.759.511-1.086.767-2.312.767-3.677v-.084c0-1.197-.203-2.249-.608-3.155-.405-.905-.998-1.698-1.78-2.382-.783-.682-1.767-1.26-2.954-1.734-1.187-.473-2.549-.905-4.085-1.296-1.396-.334-2.549-.654-3.457-.96-.907-.307-1.62-.634-2.136-.982-.517-.348-.873-.738-1.068-1.17-.196-.432-.294-.926-.294-1.484v-.084c0-.974.418-1.796 1.254-2.465.836-.669 2.006-1.003 3.51-1.003 1.338 0 2.66.258 3.97.773 1.31.516 2.633 1.26 3.97 2.236l2.759-3.887c-1.505-1.197-3.114-2.11-4.827-2.737-1.713-.627-3.643-.94-5.788-.94-1.449 0-2.785.209-4.008.627-1.223.418-2.27.996-3.14 1.734-.87.738-1.554 1.63-2.052 2.674-.497 1.045-.745 2.194-.745 3.448v.084c0 1.337.215 2.48.648 3.426.433.948 1.062 1.749 1.886 2.403.824.655 1.844 1.212 3.059 1.672 1.214.46 2.604.87 4.168 1.232 1.369.307 2.479.614 3.33.92.852.307 1.523.641 2.012 1.003.488.362.824.746 1.006 1.15.18.403.272.87.272 1.399v.084c0 1.114-.467 2.005-1.4 2.674-.934.669-2.194 1.003-3.782 1.003-1.839 0-3.483-.327-4.931-.982-1.45-.654-2.884-1.595-4.305-2.82l-3.092 3.677c1.755 1.587 3.663 2.765 5.725 3.53 2.062.767 4.22 1.15 6.478 1.15 1.531 0 2.937-.195 4.217-.585zm8.32.167H72.4v-6.31l3.093-3.218 6.644 9.528h5.85l-9.067-13.08 8.775-8.984h-6.143L72.4 18.22V0h-5.098v30.506zm22.94 0h5.099V8.441h-5.098v22.065zm-.208-25.45h5.474V.251h-5.474v4.805zm9.653 25.45h5.098V0h-5.098v30.506zm9.444 0h5.098V0h-5.098v30.506z" clip-rule="evenodd"/>
</svg>
